<?xml version="1.0" standalone="no"?>
<!DOCTYPE svg PUBLIC "-//W3C//DTD SVG 20010904//EN"
 "http://www.w3.org/TR/2001/REC-SVG-20010904/DTD/svg10.dtd">
<svg version="1.0" xmlns="http://www.w3.org/2000/svg"
 width="700.000000pt" height="700.000000pt" viewBox="0 0 700.000000 700.000000"
 preserveAspectRatio="xMidYMid meet">
<metadata>
Created by potrace 1.14, written by Peter Selinger 2001-2017
</metadata>
<g transform="translate(0.000000,700.000000) scale(0.100000,-0.100000)"
fill="#000000" stroke="none">
<path d="M3330 6410 c-951 -75 -1753 -753 -1979 -1673 -48 -194 -63 -320 -64
-532 0 -359 69 -662 224 -981 318 -654 944 -1108 1684 -1220 149 -22 461 -22
610 0 995 151 1741 896 1890 1891 23 153 23 452 0 610 -116 799 -643 1468
-1389 1760 -295 116 -660 170 -976 145z"/>
<path d="M1173 1418 c14 -233 107 -431 280 -595 94 -89 203 -154 327 -195 84
-27 112 -32 235 -36 118 -3 154 -1 228 17 189 45 358 150 477 297 l53 66 25
-34 c48 -65 180 -184 248 -224 88 -52 187 -91 278 -111 104 -22 327 -13 421
17 166 53 329 162 430 289 l50 62 39 -48 c134 -163 299 -268 493 -314 74 -18
110 -20 228 -17 123 4 151 9 235 36 142 47 238 108 350 221 168 170 260 384
260 609 l0 62 -230 0 -230 0 0 -34 c0 -166 -98 -325 -247 -398 -63 -31 -74
-33 -168 -33 -91 0 -106 3 -165 31 -153 73 -250 223 -250 386 l0 48 -312 -2
-313 -3 -6 -75 c-10 -116 -54 -207 -136 -281 -189 -171 -469 -136 -612 75 -42
62 -63 124 -70 206 l-6 75 -312 3 -313 2 0 -48 c0 -163 -97 -313 -250 -386
-59 -28 -74 -31 -165 -31 -93 0 -105 3 -168 33 -148 73 -247 232 -247 398 l0
34 -232 0 -231 0 6 -102z"/>
</g>
</svg>
