<svg width="128" height="28" viewBox="0 0 128 28" fill="none" xmlns="http://www.w3.org/2000/svg">
<path d="M58.3718 22.1667V3.06133H53.193L50.1072 12.1578C49.3022 14.5192 48.5508 16.961 47.88 19.3492H47.8263C47.1823 16.961 46.431 14.5192 45.626 12.1578L42.5402 3.06133H37.3613V22.1667H40.474V12.5603C40.474 10.1453 40.4472 7.73033 40.3667 5.31533H40.4203C41.1448 7.73033 41.923 10.1185 42.728 12.5067L46.0285 22.1667H49.7047L53.0052 12.5067C53.8102 10.1185 54.5883 7.73033 55.3128 5.31533H55.3665C55.286 7.73033 55.2592 10.1453 55.2592 12.5603V22.1667H58.3718Z" fill="#E4EBFA"/>
<path d="M67.7899 8.13283C64.1137 8.13283 62.2354 10.1722 62.1012 12.7482H65.1066C65.1871 11.2992 66.0994 10.36 67.7899 10.36C69.3462 10.36 70.4464 11.165 70.4464 13.1775V13.7142C69.4804 13.7678 67.8704 13.9288 66.7702 14.1167C62.8526 14.7338 61.5377 16.1828 61.5377 18.41C61.5377 20.7445 63.3087 22.4618 66.1531 22.4618C68.2192 22.4618 69.7487 21.7105 70.7416 20.2615H70.7952C70.7952 20.9055 70.8489 21.5763 70.9831 22.1667H73.7469C73.5322 21.308 73.3981 20.181 73.3981 18.571V13.4727C73.3981 9.90383 71.3856 8.13283 67.7899 8.13283ZM70.4464 16.3707C70.4464 17.8197 70.2317 18.5442 69.5072 19.2955C68.8901 19.9127 67.9777 20.2078 67.0386 20.2078C65.4822 20.2078 64.6236 19.4028 64.6236 18.1953C64.6236 16.961 65.3481 16.3707 67.3069 16.0487C68.2192 15.8877 69.5341 15.7535 70.4464 15.6998V16.3707Z" fill="#E4EBFA"/>
<path d="M80.2154 5.98617V3.06133H77.1564V5.98617H80.2154ZM80.2154 22.1667V8.53533H77.1564V22.1667H80.2154Z" fill="#E4EBFA"/>
<path d="M87.1858 22.1667V3.06133H84.1268V22.1667H87.1858Z" fill="#E4EBFA"/>
<path d="M94.1562 5.98617V3.06133H91.0972V5.98617H94.1562ZM94.1562 22.1667V8.53533H91.0972V22.1667H94.1562Z" fill="#E4EBFA"/>
<path d="M105.098 8.21333C103.3 8.21333 101.878 9.072 101.019 10.3063H100.966V8.53533H98.0675V22.1667H101.127V14.5997C101.127 11.9968 102.495 10.682 104.239 10.682C105.957 10.682 107.003 11.648 107.003 14.0898V22.1667H110.062V13.8215C110.062 10.0917 108.184 8.21333 105.098 8.21333Z" fill="#E4EBFA"/>
<path d="M118.619 8.15967C115.131 8.15967 112.903 10.8698 112.903 15.0827C112.903 19.3223 115.104 22.0057 118.565 22.0057C120.256 22.0057 121.517 21.308 122.51 19.859H122.563V21.2007C122.563 24.045 121.436 25.0915 119.397 25.0915C117.68 25.0915 116.633 24.3402 116.553 23.0253H113.494C113.628 25.7087 115.694 27.3455 119.343 27.3455C123.181 27.3455 125.542 25.3867 125.542 21.308V8.53533H122.644V10.4405H122.59C121.571 8.88416 120.309 8.15967 118.619 8.15967ZM119.317 10.7088C121.383 10.7088 122.671 12.4262 122.671 15.0827C122.671 17.766 121.383 19.4833 119.317 19.4833C117.358 19.4833 116.097 17.766 116.097 15.0827C116.097 12.3993 117.358 10.7088 119.317 10.7088Z" fill="#E4EBFA"/>
<mask id="mask0_3192_3415" style="mask-type:alpha" maskUnits="userSpaceOnUse" x="0" y="22" width="22" height="6">
<rect x="21.6777" y="27.0968" width="21.6774" height="4.33549" transform="rotate(180 21.6777 27.0968)" fill="#C4C4C4"/>
</mask>
<g mask="url(#mask0_3192_3415)">
<path fill-rule="evenodd" clip-rule="evenodd" d="M10.8391 20.9548C9.81287 20.9548 8.92007 21.8106 8.92007 22.9419C8.92007 24.0733 9.81287 24.929 10.8391 24.929C11.8652 24.929 12.758 24.0733 12.758 22.9419C12.758 21.8106 11.8652 20.9548 10.8391 20.9548ZM10.8391 18.7871C8.58202 18.7871 6.75233 20.6473 6.75233 22.9419C6.75233 25.2366 8.58202 27.0968 10.8391 27.0968C13.0961 27.0968 14.9258 25.2366 14.9258 22.9419C14.9258 20.6473 13.0961 18.7871 10.8391 18.7871Z" fill="#E4EBFA"/>
<path fill-rule="evenodd" clip-rule="evenodd" d="M17.591 20.9548C16.5648 20.9548 15.672 21.8106 15.672 22.9419C15.672 24.0733 16.5648 24.929 17.591 24.929C18.6172 24.929 19.51 24.0733 19.51 22.9419C19.51 21.8106 18.6172 20.9548 17.591 20.9548ZM17.591 18.7871C15.334 18.7871 13.5043 20.6473 13.5043 22.9419C13.5043 25.2366 15.334 27.0968 17.591 27.0968C19.848 27.0968 21.6777 25.2366 21.6777 22.9419C21.6777 20.6473 19.848 18.7871 17.591 18.7871Z" fill="#E4EBFA"/>
<path fill-rule="evenodd" clip-rule="evenodd" d="M4.0871 20.9548C3.06092 20.9548 2.16812 21.8106 2.16812 22.9419C2.16812 24.0733 3.06092 24.929 4.0871 24.929C5.11329 24.929 6.00609 24.0733 6.00609 22.9419C6.00609 21.8106 5.11329 20.9548 4.0871 20.9548ZM4.0871 18.7871C1.83006 18.7871 0.000375184 20.6473 0.000375384 22.9419C0.000375585 25.2366 1.83007 27.0968 4.0871 27.0968C6.34414 27.0968 8.17383 25.2366 8.17383 22.9419C8.17383 20.6473 6.34414 18.7871 4.0871 18.7871Z" fill="#E4EBFA"/>
</g>
<ellipse cx="10.8388" cy="10.2968" rx="10.2968" ry="10.2968" fill="#E4EBFA"/>
</svg>
