<svg width="147" height="32" viewBox="0 0 147 32" fill="none" xmlns="http://www.w3.org/2000/svg">
<path d="M57.4972 4.43598C57.4972 4.22111 57.4051 4.12903 57.1903 4.12903H54.1515C53.9366 4.12903 53.7524 4.22111 53.6604 4.43598L49.3938 16.008L45.1272 4.43598C45.0351 4.22111 44.8509 4.12903 44.6361 4.12903H41.5973C41.3824 4.12903 41.2903 4.22111 41.2903 4.43598V25.3085C41.2903 25.5234 41.3824 25.6155 41.5973 25.6155H43.5617C43.7766 25.6155 43.8687 25.5234 43.8687 25.3085V8.11936L48.2581 19.5993C48.3194 19.7527 48.4729 19.8755 48.6571 19.8755H50.1304C50.3146 19.8755 50.4681 19.7527 50.5295 19.5993L54.9188 8.11936V25.3085C54.9188 25.5234 55.0109 25.6155 55.2258 25.6155H57.1903C57.4051 25.6155 57.4972 25.5234 57.4972 25.3085V4.43598Z" fill="black"/>
<path d="M63.1513 14.7802C63.3355 14.7802 63.489 14.7495 63.581 14.5039C64.1642 13.0305 65.2693 12.1711 67.0189 12.1711C69.4745 12.1711 70.733 13.4296 70.733 15.7931V16.5605C69.5972 16.1921 68.0932 15.9159 66.7119 15.9159C63.2434 15.9159 60.4195 17.6348 60.4195 21.0419C60.4195 24.3877 63.1513 25.9224 66.0366 25.9224C68.216 25.9224 69.7507 25.0629 70.733 23.7124V25.3085C70.733 25.5234 70.825 25.6155 71.0399 25.6155H73.4341C73.649 25.6155 73.7717 25.5234 73.649 25.3085C73.2499 24.5718 73.1272 24.0807 73.1272 22.6687V15.1792C73.1272 12.0483 70.5488 9.89967 67.0189 9.89967C63.6117 9.89967 61.5859 12.0176 61.0027 14.289C60.972 14.4118 60.972 14.5346 60.972 14.596C60.972 14.7188 61.0641 14.7802 61.1868 14.7802H63.1513ZM70.733 18.8319C70.733 21.9321 68.5843 23.651 66.2822 23.651C64.1336 23.651 62.9365 22.6074 62.9365 21.0419C62.9365 19.1388 64.6247 18.1873 66.7426 18.1873C68.2467 18.1873 69.4745 18.4022 70.733 18.8319Z" fill="black"/>
<path d="M76.5535 12.1097C76.5535 12.3246 76.6456 12.4167 76.8604 12.4167H80.1755V23.344H76.0931C75.8782 23.344 75.7861 23.4361 75.7861 23.651V25.3085C75.7861 25.5234 75.8782 25.6155 76.0931 25.6155H86.8056C87.0204 25.6155 87.1125 25.5234 87.1125 25.3085V23.651C87.1125 23.4361 87.0204 23.344 86.8056 23.344H82.5697V10.5136C82.5697 10.2987 82.4776 10.2066 82.2627 10.2066H76.8604C76.6456 10.2066 76.5535 10.2987 76.5535 10.5136V12.1097ZM79.5616 7.38269C79.5616 7.59755 79.6537 7.68964 79.8685 7.68964H82.5083C82.7231 7.68964 82.8152 7.59755 82.8152 7.38269V4.74293C82.8152 4.52806 82.7231 4.43598 82.5083 4.43598H79.8685C79.6537 4.43598 79.5616 4.52806 79.5616 4.74293V7.38269Z" fill="black"/>
<path d="M89.5592 6.0935C89.5592 6.30837 89.6513 6.40045 89.8662 6.40045H93.703V23.344H89.2523C89.0374 23.344 88.9453 23.4361 88.9453 23.651V25.3085C88.9453 25.5234 89.0374 25.6155 89.2523 25.6155H100.579C100.794 25.6155 100.886 25.5234 100.886 25.3085V23.651C100.886 23.4361 100.794 23.344 100.579 23.344H96.0973V4.43598C96.0973 4.22111 96.0052 4.12903 95.7903 4.12903H89.8662C89.6513 4.12903 89.5592 4.22111 89.5592 4.43598V6.0935Z" fill="black"/>
<path d="M103.591 12.1097C103.591 12.3246 103.683 12.4167 103.898 12.4167H107.213V23.344H103.131C102.916 23.344 102.824 23.4361 102.824 23.651V25.3085C102.824 25.5234 102.916 25.6155 103.131 25.6155H113.843C114.058 25.6155 114.15 25.5234 114.15 25.3085V23.651C114.15 23.4361 114.058 23.344 113.843 23.344H109.608V10.5136C109.608 10.2987 109.515 10.2066 109.301 10.2066H103.898C103.683 10.2066 103.591 10.2987 103.591 10.5136V12.1097ZM106.599 7.38269C106.599 7.59755 106.692 7.68964 106.906 7.68964H109.546C109.761 7.68964 109.853 7.59755 109.853 7.38269V4.74293C109.853 4.52806 109.761 4.43598 109.546 4.43598H106.906C106.692 4.43598 106.599 4.52806 106.599 4.74293V7.38269Z" fill="black"/>
<path d="M116.644 25.3085C116.644 25.5234 116.736 25.6155 116.951 25.6155H118.732C118.946 25.6155 119.039 25.5234 119.039 25.3085V17.512C119.039 14.2277 121.064 12.1711 123.213 12.1711C125.147 12.1711 126.16 13.3682 126.16 15.4554V25.3085C126.16 25.5234 126.252 25.6155 126.467 25.6155H128.247C128.462 25.6155 128.554 25.5234 128.554 25.3085V14.9029C128.554 11.8028 126.927 9.89967 123.888 9.89967C121.832 9.89967 119.99 11.0661 119.039 12.3553V10.5136C119.039 10.2987 118.946 10.2066 118.732 10.2066H116.951C116.736 10.2066 116.644 10.2987 116.644 10.5136V25.3085Z" fill="black"/>
<path d="M131.173 20.9805C131.173 22.7301 131.91 23.7124 132.984 24.4491C132.462 25.155 132.155 26.168 132.155 27.1809C132.155 30.1583 134.611 32 139.276 32C143.604 32 146.091 30.0048 146.091 26.9967C146.091 23.5896 143.604 22.1776 139.767 22.1776C137.711 22.1776 136.575 22.7608 135.378 22.7608C134.273 22.7608 133.567 22.0548 133.567 21.1033C133.567 20.1211 134.12 19.5072 135.194 19.0467C136.176 19.9369 137.435 20.3666 138.877 20.3666C141.793 20.3666 144.218 18.5249 144.218 15.1485C144.218 14.1049 144.003 13.3068 143.604 12.5701L145.569 10.6977C145.661 10.6057 145.722 10.5136 145.722 10.4215C145.722 10.3294 145.661 10.2373 145.599 10.1759L144.433 8.94813C144.341 8.85604 144.28 8.79465 144.188 8.79465C144.095 8.79465 144.034 8.82535 143.942 8.91743L141.885 10.7591C141.026 10.2066 140.013 9.89967 138.877 9.89967C135.992 9.89967 133.567 11.7721 133.567 15.1485C133.567 15.9466 133.721 16.6525 133.966 17.2664C132.523 17.911 131.173 18.9854 131.173 20.9805ZM134.672 26.966C134.672 26.0452 134.887 25.4927 135.501 24.9709C136.698 24.9709 137.68 24.4491 139.276 24.4491C142.162 24.4491 143.574 25.4313 143.574 26.9967C143.574 28.6849 142.162 29.7286 139.276 29.7286C136.299 29.7286 134.672 28.777 134.672 26.966ZM136.084 15.1485C136.084 13.1226 137.25 12.1711 138.877 12.1711C140.535 12.1711 141.701 13.1226 141.701 15.1485C141.701 17.1437 140.535 18.0952 138.877 18.0952C137.25 18.0952 136.084 17.1437 136.084 15.1485Z" fill="black"/>
<mask id="mask0_521_430" style="mask-type:alpha" maskUnits="userSpaceOnUse" x="0" y="26" width="25" height="5">
<rect x="24.7742" y="30.9677" width="24.7742" height="4.95484" transform="rotate(180 24.7742 30.9677)" fill="#C4C4C4"/>
</mask>
<g mask="url(#mask0_521_430)">
<path fill-rule="evenodd" clip-rule="evenodd" d="M12.3871 23.9484C11.2143 23.9484 10.194 24.9264 10.194 26.2194C10.194 27.5123 11.2143 28.4903 12.3871 28.4903C13.5599 28.4903 14.5803 27.5123 14.5803 26.2194C14.5803 24.9264 13.5599 23.9484 12.3871 23.9484ZM12.3871 21.471C9.80766 21.471 7.71659 23.5969 7.71659 26.2194C7.71659 28.8418 9.80766 30.9677 12.3871 30.9677C14.9666 30.9677 17.0577 28.8418 17.0577 26.2194C17.0577 23.5969 14.9666 21.471 12.3871 21.471Z" fill="black"/>
<path fill-rule="evenodd" clip-rule="evenodd" d="M20.1037 23.9484C18.9309 23.9484 17.9106 24.9264 17.9106 26.2194C17.9106 27.5123 18.9309 28.4903 20.1037 28.4903C21.2765 28.4903 22.2968 27.5123 22.2968 26.2194C22.2968 24.9264 21.2765 23.9484 20.1037 23.9484ZM20.1037 21.471C17.5242 21.471 15.4331 23.5969 15.4331 26.2194C15.4331 28.8418 17.5242 30.9677 20.1037 30.9677C22.6832 30.9677 24.7742 28.8418 24.7742 26.2194C24.7742 23.5969 22.6832 21.471 20.1037 21.471Z" fill="black"/>
<path fill-rule="evenodd" clip-rule="evenodd" d="M4.67058 23.9484C3.4978 23.9484 2.47745 24.9264 2.47745 26.2194C2.47745 27.5123 3.4978 28.4903 4.67058 28.4903C5.84336 28.4903 6.86371 27.5123 6.86371 26.2194C6.86371 24.9264 5.84336 23.9484 4.67058 23.9484ZM4.67058 21.471C2.09111 21.471 3.53327e-05 23.5969 3.5562e-05 26.2194C3.57912e-05 28.8418 2.09111 30.9677 4.67058 30.9677C7.25005 30.9677 9.34113 28.8418 9.34113 26.2194C9.34112 23.5969 7.25005 21.471 4.67058 21.471Z" fill="black"/>
</g>
<ellipse cx="12.3871" cy="11.7677" rx="11.7677" ry="11.7677" fill="black"/>
</svg>
