<svg width="20" height="24" viewBox="0 0 20 24" fill="none" xmlns="http://www.w3.org/2000/svg">
<mask id="mask0_1639_1907" style="mask-type:alpha" maskUnits="userSpaceOnUse" x="0" y="20" width="20" height="4">
<rect x="19.1992" y="24" width="19.2" height="3.84" transform="rotate(180 19.1992 24)" fill="#C4C4C4"/>
</mask>
<g mask="url(#mask0_1639_1907)">
<path fill-rule="evenodd" clip-rule="evenodd" d="M9.59908 18.56C8.69018 18.56 7.89941 19.3179 7.89941 20.32C7.89941 21.3221 8.69018 22.08 9.59908 22.08C10.508 22.08 11.2988 21.3221 11.2988 20.32C11.2988 19.3179 10.508 18.56 9.59908 18.56ZM9.59908 16.64C7.59999 16.64 5.97941 18.2876 5.97941 20.32C5.97941 22.3524 7.59999 24 9.59908 24C11.5982 24 13.2187 22.3524 13.2187 20.32C13.2187 18.2876 11.5982 16.64 9.59908 16.64Z" fill="#E4EBFA"/>
<path fill-rule="evenodd" clip-rule="evenodd" d="M15.5796 18.56C14.6706 18.56 13.8799 19.3179 13.8799 20.32C13.8799 21.3221 14.6706 22.08 15.5796 22.08C16.4885 22.08 17.2792 21.3221 17.2792 20.32C17.2792 19.3179 16.4885 18.56 15.5796 18.56ZM15.5795 16.64C13.5805 16.64 11.9599 18.2876 11.9599 20.32C11.9599 22.3524 13.5805 24 15.5796 24C17.5786 24 19.1992 22.3524 19.1992 20.32C19.1992 18.2876 17.5786 16.64 15.5795 16.64Z" fill="#E4EBFA"/>
<path fill-rule="evenodd" clip-rule="evenodd" d="M3.62057 18.56C2.71166 18.56 1.9209 19.3179 1.9209 20.32C1.9209 21.3221 2.71166 22.08 3.62057 22.08C4.52947 22.08 5.32024 21.3221 5.32024 20.32C5.32024 19.3179 4.52947 18.56 3.62057 18.56ZM3.62057 16.64C1.62148 16.64 0.000897638 18.2876 0.000897818 20.32C0.000897999 22.3524 1.62148 24 3.62057 24C5.61965 24 7.24023 22.3524 7.24023 20.32C7.24023 18.2876 5.61965 16.64 3.62057 16.64Z" fill="#E4EBFA"/>
</g>
<ellipse cx="9.59851" cy="9.11999" rx="9.11999" ry="9.11999" fill="#E4EBFA"/>
</svg>
