<svg width="26" height="32" viewBox="0 0 26 32" fill="none" xmlns="http://www.w3.org/2000/svg">
<mask id="mask0_521_674" style="mask-type:alpha" maskUnits="userSpaceOnUse" x="0" y="26" width="26" height="6">
<rect x="25.6" y="32" width="25.6" height="5.12" transform="rotate(180 25.6 32)" fill="#C4C4C4"/>
</mask>
<g mask="url(#mask0_521_674)">
<path fill-rule="evenodd" clip-rule="evenodd" d="M12.8001 24.7467C11.5882 24.7467 10.5338 25.7572 10.5338 27.0933C10.5338 28.4294 11.5882 29.44 12.8001 29.44C14.0119 29.44 15.0663 28.4294 15.0663 27.0933C15.0663 25.7572 14.0119 24.7467 12.8001 24.7467ZM12.8001 22.1867C10.1346 22.1867 7.97382 24.3835 7.97382 27.0933C7.97382 29.8032 10.1346 32 12.8001 32C15.4655 32 17.6263 29.8032 17.6263 27.0933C17.6263 24.3835 15.4655 22.1867 12.8001 22.1867Z" fill="black"/>
<path fill-rule="evenodd" clip-rule="evenodd" d="M20.7738 24.7467C19.5619 24.7467 18.5076 25.7572 18.5076 27.0933C18.5076 28.4294 19.5619 29.44 20.7738 29.44C21.9857 29.44 23.04 28.4294 23.04 27.0933C23.04 25.7572 21.9857 24.7467 20.7738 24.7467ZM20.7738 22.1867C18.1084 22.1867 15.9476 24.3835 15.9476 27.0933C15.9476 29.8032 18.1084 32 20.7738 32C23.4393 32 25.6 29.8032 25.6 27.0933C25.6 24.3835 23.4393 22.1867 20.7738 22.1867Z" fill="black"/>
<path fill-rule="evenodd" clip-rule="evenodd" d="M4.82624 24.7467C3.61436 24.7467 2.56001 25.7572 2.56001 27.0933C2.56001 28.4294 3.61436 29.44 4.82624 29.44C6.03811 29.44 7.09247 28.4294 7.09247 27.0933C7.09247 25.7572 6.03811 24.7467 4.82624 24.7467ZM4.82624 22.1867C2.16078 22.1867 6.95926e-06 24.3835 7.19617e-06 27.0933C7.43307e-06 29.8032 2.16078 32 4.82624 32C7.49169 32 9.65247 29.8032 9.65247 27.0933C9.65247 24.3835 7.49169 22.1867 4.82624 22.1867Z" fill="black"/>
</g>
<ellipse cx="12.8" cy="12.16" rx="12.16" ry="12.16" fill="black"/>
</svg>
