<svg xmlns="http://www.w3.org/2000/svg" width="108" height="108" fill="none"><rect width="108" height="108" fill="#E4EBFA" rx="54"/><path fill="#111" d="M45 40.314h.49c.103-.223.103-.55 0-.921-.104-.55-.268-.92-.595-.876-.326.06-.326.49-.222 1.04.044.326.163.593.326.757ZM42.12 40.804c.223.104.387.163.431.104.06-.06 0-.104-.06-.223-.103-.223-.385-.386-.593-.49-.55-.223-1.144-.163-1.634.223-.163.104-.327.267-.267.386 0 .06.06.06.104.06.104 0 .594-.223 1.143-.268.327-.015.654.104.876.208ZM41.632 41.071c-.326.06-.49.163-.594.268-.104.103-.163.163-.163.222v.06h.06c.059 0 .222-.06.222-.06.43-.163.713-.163.98-.104.164 0 .223.06.268 0v-.104c-.015-.163-.342-.326-.773-.282Z"/><path fill="#111" d="M41.791 41.457c.104-.223.104-.713 0-1.084-.104-.55-.267-.876-.653-.876-.327.06-.327.49-.223 1.084.06.386.223.594.267.757.282.446.446.327.61.12ZM44.02 42.051c.223.104.43.06.55-.104.059-.163-.06-.386-.268-.49-.222-.104-.43-.06-.55.104-.118.164.045.386.268.49ZM45.372 40.863c-.164 0-.327.164-.327.43 0 .224.104.432.327.432.163 0 .326-.164.326-.431-.044-.223-.163-.43-.326-.43ZM33.863 45.096c-.06-.06-.104-.06-.163 0h-.164c-.104 0-.223-.06-.267-.164-.045-.104-.06-.267 0-.49l.06-.104c.163-.327.385-.817.103-1.307-.223-.386-.49-.594-.876-.653a1.05 1.05 0 0 0-.98.386c-.386.43-.43.98-.386 1.188 0 .06.06.104.104.104.06 0 .163-.06.223-.223v-.06c0-.103.059-.222.163-.385.104-.164.267-.268.43-.268.164-.059.387 0 .55.104.267.164.386.49.267.817-.163.164-.222.43-.222.713.059.49.386.713.653.757.267 0 .49-.163.49-.267.06-.09.015-.09.015-.148Z"/><path fill="#111" d="M49.663 44.175c0-.06-.06-.267-.163-.594l-.223-.49c.386-.55.386-1.084.327-1.352-.06-.326-.223-.653-.49-.98-.267-.327-.92-.653-1.738-.876l-.43-.104s0-1.04-.06-1.47c0-.327-.06-.817-.222-1.307-.164-.653-.49-1.247-.921-1.633 1.084-1.144 1.797-2.45 1.797-3.535 0-2.064-2.554-2.717-5.762-1.41l-.654.267s-1.188-1.188-1.247-1.188c-3.52-3.149-14.761 9.4-11.182 12.444l.757.654c-.223.55-.267 1.143-.223 1.797.104.816.55 1.633 1.188 2.286.654.595 1.515.98 2.391.98 1.411 3.268 4.619 5.213 8.36 5.332 4.025.104 7.441-1.797 8.852-5.168.104-.223.49-1.307.49-2.287.089-.995-.46-1.366-.847-1.366ZM33.15 46.729c-.104 0-.268.06-.386 0-1.188-.06-2.555-1.143-2.659-2.45-.104-1.411.594-2.495 1.901-2.777.164-.06.327-.06.55-.06.713.06 1.797.594 2.064 2.169.208 1.485-.104 2.895-1.47 3.118Zm-1.352-6.088c-.816.163-1.514.593-1.96 1.247-.267-.223-.757-.654-.817-.817-.713-1.307.758-3.905 1.797-5.331 2.495-3.58 6.46-6.297 8.257-5.822.327.104 1.307 1.248 1.307 1.248s-1.842 1.04-3.535 2.45c-2.287 1.693-4.024 4.247-5.049 7.025Zm12.816 5.539.06-.06c0-.06-.06-.06-.06-.06s-1.9.268-3.697-.385c.222-.654.712-.43 1.514-.327 1.411.104 2.718-.104 3.639-.386.816-.223 1.9-.713 2.717-1.352.267.595.386 1.307.386 1.307s.223-.059.386.06c.164.104.268.327.223.876-.163 1.084-.653 1.9-1.351 2.718-.43.49-1.04.92-1.678 1.247a6.344 6.344 0 0 1-1.084.43c-2.94.921-5.866-.059-6.787-2.286-.06-.164-.163-.327-.163-.55-.386-1.47-.06-3.207 1.04-4.291a.396.396 0 0 0 .103-.268c0-.104-.06-.163-.104-.223-.386-.55-1.678-1.47-1.41-3.267.163-1.306 1.306-2.168 2.33-2.123h.268c.43 0 .876.104 1.188.104.594 0 1.188-.06 1.842-.594.222-.164.386-.327.712-.386.06 0 .104-.06.268 0a.62.62 0 0 1 .43.163c.55.386.594 1.188.654 1.841 0 .386.06 1.248.06 1.47.059.55.163.654.49.758.163.06.326.104.549.163.713.223 1.143.386 1.41.654.164.163.223.326.268.49.104.594-.49 1.351-1.96 2.064-1.634.757-3.535.92-4.886.757l-.49-.06c-1.084-.163-1.678 1.248-1.04 2.169.43.594 1.574 1.04 2.658 1.04 2.614 0 4.619-1.084 5.332-2.065l.06-.104c.059-.059 0-.104-.06-.059-.594.43-3.312 2.064-6.193 1.574 0 0-.327-.06-.653-.163-.268-.104-.758-.327-.876-.876 2.435.712 3.905 0 3.905 0Zm-8.153-10.425c.877-1.04 2.005-1.96 2.985-2.45.06 0 .06 0 .06.059-.06.163-.223.43-.268.653 0 .06.06.06.06.06.594-.431 1.678-.877 2.613-.921.06 0 .06.06.06.06-.163.103-.267.267-.43.43 0 0 0 .06.059.06.653 0 1.574.222 2.168.593.06 0 0 .104-.06.104a8.593 8.593 0 0 0-3.965 0c-1.41.327-2.45.877-3.207 1.411-.075-.015-.12-.015-.075-.06Z"/><path fill="#111" d="M55 60.994v8.012h7.994V77h7.993V60.994H55Z" opacity=".35"/><path fill="#111" d="M62.994 69.006H55V77h7.994v-7.994Z"/><path fill="#111" d="M70.986 60.994V53h-7.994v16.006H79v-8.012h-8.013Z" opacity=".75"/><path fill="#111" d="M78.982 53h-7.994v7.994h7.994V53Z"/></svg>