<svg xmlns="http://www.w3.org/2000/svg" width="108" height="108" fill="none"><rect width="108" height="108" fill="#E4EBFA" rx="54"/><mask id="a" width="26" height="6" x="41" y="64" maskUnits="userSpaceOnUse" style="mask-type:alpha"><path fill="#C4C4C4" d="M66.6 70H41v-5.12h25.6z"/></mask><g fill="#111" fill-rule="evenodd" clip-rule="evenodd" mask="url(#a)"><path d="M53.8 62.747c-1.211 0-2.265 1.01-2.265 2.346s1.054 2.347 2.266 2.347 2.266-1.01 2.266-2.347c0-1.336-1.054-2.346-2.266-2.346Zm0-2.56c-2.665 0-4.825 2.197-4.825 4.906 0 2.71 2.16 4.907 4.826 4.907 2.665 0 4.826-2.197 4.826-4.907s-2.16-4.906-4.826-4.906Z"/><path d="M61.773 62.747c-1.212 0-2.266 1.01-2.266 2.346s1.055 2.347 2.266 2.347c1.212 0 2.267-1.01 2.267-2.347 0-1.336-1.055-2.346-2.267-2.346Zm0-2.56c-2.665 0-4.826 2.197-4.826 4.906 0 2.71 2.16 4.907 4.826 4.907 2.666 0 4.827-2.197 4.827-4.907s-2.161-4.906-4.827-4.906ZM45.824 62.747c-1.212 0-2.266 1.01-2.266 2.346s1.054 2.347 2.266 2.347 2.266-1.01 2.266-2.347c0-1.336-1.054-2.346-2.266-2.346Zm0-2.56c-2.665 0-4.826 2.197-4.826 4.906 0 2.71 2.16 4.907 4.826 4.907 2.666 0 4.826-2.197 4.826-4.907s-2.16-4.906-4.826-4.906Z"/></g><circle cx="53.799" cy="50.16" r="12.16" fill="#111"/></svg>