<svg width="13" height="15" viewBox="0 0 13 15" fill="none" xmlns="http://www.w3.org/2000/svg">
<path d="M11.677 1C12.2293 1 12.677 1.44772 12.677 2V4.32446C12.677 4.43159 12.5901 4.51844 12.483 4.51844V4.51844C12.3941 4.51844 12.3168 4.45797 12.2941 4.37205C12.0995 3.63643 11.8852 3.10362 11.6512 2.7736C11.4019 2.41568 11.06 2.13127 10.6254 1.92035C10.3825 1.80531 9.95747 1.74779 9.35029 1.74779V1.74779C8.81552 1.74779 8.38201 2.18131 8.38201 2.71608V11.7758C8.38201 12.4405 8.41716 12.8559 8.48746 13.0221C8.56416 13.1883 8.70796 13.3353 8.91888 13.4631C9.13618 13.5846 9.43019 13.6453 9.80088 13.6453H10.0549C10.1529 13.6453 10.2323 13.7247 10.2323 13.8226V13.8226C10.2323 13.9206 10.1529 14 10.0549 14H3.60288C3.50492 14 3.42552 13.9206 3.42552 13.8226V13.8226C3.42552 13.7247 3.50492 13.6453 3.60288 13.6453H3.85693C4.23402 13.6453 4.53761 13.5782 4.7677 13.444C4.93387 13.3545 5.0649 13.2011 5.16077 12.9838C5.23107 12.8304 5.26622 12.4277 5.26622 11.7758V2.68732C5.26622 2.16843 4.84558 1.74779 4.3267 1.74779V1.74779C3.45108 1.74779 2.81514 1.93314 2.41888 2.30383C1.89536 2.79125 1.55314 3.47412 1.39221 4.35244C1.37476 4.44765 1.29283 4.51844 1.19604 4.51844V4.51844C1.08777 4.51844 1 4.43067 1 4.3224V2C1 1.44771 1.44772 1 2 1H11.677Z" fill="#333333" stroke="#333333" stroke-width="0.25"/>
</svg>
