<svg width="9" height="13" viewBox="0 0 9 13" fill="none" xmlns="http://www.w3.org/2000/svg">
<path d="M4.22165 0.367996C1.65498 0.367996 0.171647 1.618 0.10498 4.068H2.53831C2.58831 2.90133 3.13831 2.38466 4.22165 2.38466C5.17165 2.38466 5.67165 2.83466 5.67165 3.53466C5.67165 4.18466 5.53831 4.518 4.57165 5.40133C3.27165 6.60133 2.98832 7.218 2.98832 8.85133C2.98832 8.98466 2.98831 9.18466 3.00498 9.38466H4.98831C4.98831 7.88466 5.23832 7.38466 6.43832 6.368C7.77165 5.218 8.10498 4.618 8.10498 3.468C8.10498 1.55133 6.63831 0.367996 4.22165 0.367996ZM5.25498 12.4847V10.2847H2.68831V12.4847H5.25498Z" fill="#333333"/>
</svg>
