<svg width="13" height="22" viewBox="0 0 13 22" fill="none" xmlns="http://www.w3.org/2000/svg">
<path fill-rule="evenodd" clip-rule="evenodd" d="M0.25 3C0.25 1.34315 1.59315 0 3.25 0H9.68478C11.3416 0 12.6848 1.34315 12.6848 3V19C12.6848 20.6569 11.3416 22 9.68478 22H3.25C1.59315 22 0.25 20.6569 0.25 19V3ZM2.16304 2.86957H10.7717V17.2174H2.16304V2.86957ZM6.46739 20.5652C6.99566 20.5652 7.42391 20.1369 7.42391 19.6086C7.42391 19.0804 6.99566 18.6521 6.46739 18.6521C5.93912 18.6521 5.51087 19.0804 5.51087 19.6086C5.51087 20.1369 5.93912 20.5652 6.46739 20.5652Z" fill="#333333"/>
</svg>
