<svg width="15" height="16" viewBox="0 0 15 16" fill="none" xmlns="http://www.w3.org/2000/svg">
<path d="M13.3717 0C13.924 0 14.3717 0.447715 14.3717 1V4.09165C14.3717 4.2235 14.2648 4.33038 14.1329 4.33038V4.33038C14.0236 4.33038 13.9284 4.25596 13.9004 4.15021C13.6609 3.24484 13.3972 2.58907 13.1091 2.18289C12.8024 1.74238 12.3815 1.39233 11.8466 1.13274C11.5477 0.99115 11.0246 0.920354 10.2773 0.920354H10.0855C9.53326 0.920354 9.08554 1.36807 9.08554 1.92035V13.2625C9.08554 14.0806 9.12881 14.5919 9.21534 14.7965C9.30973 15.001 9.48672 15.1819 9.74631 15.3392C10.0138 15.4887 10.3756 15.5634 10.8319 15.5634H11.1445C11.2651 15.5634 11.3628 15.6612 11.3628 15.7817V15.7817C11.3628 15.9023 11.2651 16 11.1445 16H3.20354C3.08298 16 2.98525 15.9023 2.98525 15.7817V15.7817C2.98525 15.6612 3.08298 15.5634 3.20354 15.5634H3.51622C3.98033 15.5634 4.35398 15.4808 4.63717 15.3156C4.84169 15.2055 5.00295 15.0167 5.12094 14.7493C5.20747 14.5605 5.25074 14.0649 5.25074 13.2625V1.92035C5.25074 1.36807 4.80302 0.920354 4.25074 0.920354H4.09439C3.01672 0.920354 2.23402 1.14848 1.74631 1.60472C1.10198 2.20461 0.680785 3.04507 0.482716 4.12608C0.461245 4.24326 0.36041 4.33038 0.241277 4.33038V4.33038C0.108023 4.33038 0 4.22236 0 4.08911V1C0 0.447715 0.447715 0 1 0H13.3717Z" fill="#333333"/>
</svg>
