<svg width="22" height="16" viewBox="0 0 22 16" fill="none" xmlns="http://www.w3.org/2000/svg">
<path fill-rule="evenodd" clip-rule="evenodd" d="M13.9231 1.98357C14.0661 1.4501 13.7495 0.901767 13.216 0.758825C12.6826 0.615883 12.1342 0.932466 11.9913 1.46593L8.62663 14.023C8.48368 14.5564 8.80027 15.1048 9.33373 15.2477C9.8672 15.3907 10.4155 15.0741 10.5585 14.5406L13.9231 1.98357ZM6.55 4.4C6.21863 3.95817 5.59183 3.86863 5.15 4.2L1.15 7.2C0.898194 7.38886 0.75 7.68525 0.75 8C0.75 8.31476 0.898194 8.61115 1.15 8.8L5.15 11.8C5.59183 12.1314 6.21863 12.0418 6.55 11.6C6.88137 11.1582 6.79183 10.5314 6.35 10.2L3.41667 8L6.35 5.8C6.79183 5.46863 6.88137 4.84183 6.55 4.4ZM16.0502 4.4C16.3816 3.95817 17.0084 3.86863 17.4502 4.2L21.4502 7.2C21.702 7.38886 21.8502 7.68525 21.8502 8C21.8502 8.31476 21.702 8.61115 21.4502 8.8L17.4502 11.8C17.0084 12.1314 16.3816 12.0418 16.0502 11.6C15.7188 11.1582 15.8084 10.5314 16.2502 10.2L19.1835 8L16.2502 5.8C15.8084 5.46863 15.7188 4.84183 16.0502 4.4Z" fill="#333333"/>
</svg>
