<svg width="15" height="14" viewBox="0 0 15 14" fill="none" xmlns="http://www.w3.org/2000/svg">
<path fill-rule="evenodd" clip-rule="evenodd" d="M0.694844 8.02332C0.121805 7.79657 0.0991553 7.37655 0.645724 7.08983L13.9413 0.117979C14.4879 -0.168243 14.8026 0.0844796 14.6405 0.679698L11.7706 11.2286C11.6081 11.8238 10.9968 12.0978 10.4247 11.8654L8.54171 11.0987C7.97011 10.8663 7.03235 10.4925 6.45695 10.2701L6.25803 10.1927C5.68266 9.9702 5.55794 9.41836 5.98031 8.96914L11.8087 2.73046C12.2296 2.27978 12.1777 2.22353 11.693 2.60478L4.32011 8.41921C3.83396 8.7985 2.96619 8.92282 2.39268 8.69508L0.694844 8.02332ZM6.46647 12.2661C6.46647 12.2661 5.27176 14.0966 5.30525 13.996L5.30528 13.9961C5.33896 13.8949 4.18421 11.1074 4.13265 10.983L4.13087 10.9787C3.89462 10.4084 4.16817 10.1344 4.73886 10.3678L6.04177 10.9012C6.61246 11.1346 6.80426 11.7501 6.46647 12.2661Z" fill="#333333"/>
</svg>
