<svg xmlns="http://www.w3.org/2000/svg" width="110" height="24" fill="none"><path fill="#E4EBFA" d="M43.123 3.327c0-.161-.07-.23-.23-.23h-2.28c-.16 0-.299.069-.368.23l-3.2 8.679-3.2-8.68c-.069-.16-.207-.23-.368-.23h-2.279c-.161 0-.23.07-.23.23v15.655c0 .161.069.23.23.23h1.473c.162 0 .23-.069.23-.23V6.09l3.293 8.61a.328.328 0 0 0 .299.207h1.105a.328.328 0 0 0 .3-.207l3.291-8.61v12.892c0 .161.07.23.23.23h1.474c.16 0 .23-.069.23-.23V3.327ZM47.364 11.085c.138 0 .253-.023.322-.207.437-1.105 1.266-1.75 2.578-1.75 1.842 0 2.786.944 2.786 2.717v.575a10.343 10.343 0 0 0-3.016-.483c-2.601 0-4.72 1.289-4.72 3.844 0 2.51 2.05 3.66 4.214 3.66 1.634 0 2.785-.644 3.522-1.657v1.197c0 .161.069.23.23.23h1.796c.16 0 .253-.069.16-.23-.298-.552-.39-.92-.39-1.98v-5.617c0-2.348-1.934-3.96-4.582-3.96-2.555 0-4.075 1.59-4.512 3.293-.023.092-.023.184-.023.23 0 .092.07.138.161.138h1.474Zm5.686 3.039c0 2.325-1.612 3.614-3.338 3.614-1.612 0-2.51-.783-2.51-1.957 0-1.427 1.267-2.14 2.855-2.14 1.128 0 2.049.16 2.993.483ZM57.415 9.082c0 .161.07.23.23.23h2.487v8.196H57.07c-.161 0-.23.069-.23.23v1.243c0 .161.069.23.23.23h8.034c.161 0 .23-.069.23-.23v-1.243c0-.161-.069-.23-.23-.23h-3.177V7.885c0-.161-.069-.23-.23-.23h-4.052c-.16 0-.23.069-.23.23v1.197Zm2.256-3.545c0 .161.07.23.23.23h1.98c.161 0 .23-.069.23-.23v-1.98c0-.161-.069-.23-.23-.23h-1.98c-.16 0-.23.069-.23.23v1.98ZM67.17 4.57c0 .161.069.23.23.23h2.877v12.708H66.94c-.16 0-.23.069-.23.23v1.243c0 .161.07.23.23.23h8.495c.161 0 .23-.069.23-.23v-1.243c0-.161-.069-.23-.23-.23h-3.361V3.327c0-.161-.07-.23-.23-.23H67.4c-.162 0-.23.069-.23.23V4.57ZM77.694 9.082c0 .161.069.23.23.23h2.486v8.196h-3.062c-.16 0-.23.069-.23.23v1.243c0 .161.07.23.23.23h8.035c.16 0 .23-.069.23-.23v-1.243c0-.161-.07-.23-.23-.23h-3.177V7.885c0-.161-.07-.23-.23-.23h-4.052c-.161 0-.23.069-.23.23v1.197Zm2.256-3.545c0 .161.069.23.23.23h1.98c.16 0 .23-.069.23-.23v-1.98c0-.161-.07-.23-.23-.23h-1.98c-.161 0-.23.069-.23.23v1.98ZM87.483 18.981c0 .161.07.23.23.23h1.336c.16 0 .23-.069.23-.23v-5.847c0-2.463 1.52-4.006 3.13-4.006 1.451 0 2.21.898 2.21 2.463v7.39c0 .161.07.23.231.23h1.335c.162 0 .23-.069.23-.23v-7.804c0-2.325-1.22-3.752-3.499-3.752-1.542 0-2.923.874-3.637 1.841v-1.38c0-.162-.07-.231-.23-.231h-1.336c-.16 0-.23.069-.23.23v11.096ZM98.38 15.735c0 1.313.552 2.05 1.358 2.602-.391.53-.622 1.289-.622 2.049 0 2.233 1.842 3.614 5.341 3.614 3.246 0 5.111-1.497 5.111-3.753 0-2.555-1.865-3.614-4.742-3.614-1.543 0-2.395.438-3.292.438-.829 0-1.359-.53-1.359-1.244 0-.736.415-1.197 1.22-1.542.737.668 1.681.99 2.763.99 2.187 0 4.006-1.381 4.006-3.914 0-.782-.161-1.381-.461-1.934l1.474-1.404c.069-.069.115-.138.115-.207 0-.069-.046-.138-.092-.184l-.875-.921c-.069-.07-.115-.115-.184-.115-.069 0-.115.023-.184.092l-1.543 1.381a4.113 4.113 0 0 0-2.256-.644c-2.164 0-3.983 1.404-3.983 3.936 0 .599.115 1.128.3 1.589-1.082.483-2.095 1.289-2.095 2.785Zm2.624 4.49c0-.691.161-1.106.622-1.497.898 0 1.634-.391 2.831-.391 2.164 0 3.223.736 3.223 1.91 0 1.267-1.059 2.05-3.223 2.05-2.233 0-3.453-.714-3.453-2.073Zm1.059-8.864c0-1.52.875-2.233 2.095-2.233 1.243 0 2.118.714 2.118 2.233 0 1.497-.875 2.21-2.118 2.21-1.22 0-2.095-.713-2.095-2.21Z"/><mask id="a" width="19" height="5" x="0" y="19" maskUnits="userSpaceOnUse" style="mask-type:alpha"><path fill="#C4C4C4" d="M18.58 23.225H0V19.51h18.58z"/></mask><g fill="#E4EBFA" fill-rule="evenodd" clip-rule="evenodd" mask="url(#a)"><path d="M9.29 17.961c-.88 0-1.645.734-1.645 1.703 0 .97.766 1.703 1.645 1.703.88 0 1.645-.733 1.645-1.703 0-.97-.765-1.703-1.645-1.703Zm0-1.858c-1.934 0-3.503 1.594-3.503 3.561 0 1.967 1.569 3.562 3.503 3.562 1.935 0 3.503-1.595 3.503-3.562 0-1.967-1.568-3.561-3.503-3.561Z"/><path d="M15.078 17.961c-.88 0-1.645.734-1.645 1.703 0 .97.765 1.703 1.645 1.703s1.645-.733 1.645-1.703c0-.97-.766-1.703-1.645-1.703Zm0-1.858c-1.935 0-3.503 1.595-3.503 3.561 0 1.967 1.568 3.562 3.503 3.562 1.934 0 3.503-1.595 3.503-3.562 0-1.966-1.569-3.561-3.503-3.561ZM3.503 17.961c-.88 0-1.645.734-1.645 1.703 0 .97.765 1.703 1.645 1.703s1.645-.733 1.645-1.703c0-.97-.765-1.703-1.645-1.703Zm0-1.858C1.568 16.103 0 17.697 0 19.664c0 1.967 1.568 3.562 3.503 3.562s3.503-1.595 3.503-3.562c0-1.967-1.568-3.561-3.503-3.561Z"/></g><circle cx="9.29" cy="8.826" r="8.826" fill="#E4EBFA"/></svg>